<svg width="644" height="32" viewBox="0 0 644 32" fill="none" xmlns="http://www.w3.org/2000/svg">
  <path d="M0 12.5C0 8.1 0 5.9 0.85 4.25C1.59 2.78 2.78 1.59 4.25 0.85C5.9 0 8.1 0 12.5 0H631.5C635.9 0 638.1 0 639.75 0.85C641.22 1.59 642.41 2.78 643.15 4.25C644 5.9 644 8.1 644 12.5V32H0V12.5Z" fill="#25334D"/>
  <circle cx="20" cy="16" r="4.6" fill="#ED6A5E"/>
  <circle cx="36" cy="16" r="4.6" fill="#F4BD50"/>
  <circle cx="52" cy="16" r="4.6" fill="#61C454"/>
  <path d="M86 10L80 16L86 22" stroke="#B7B7B7" stroke-width="2" stroke-linecap="round" stroke-linejoin="round"/>
  <path d="M112 10L118 16L112 22" stroke="#5A5A5A" stroke-width="2" stroke-linecap="round" stroke-linejoin="round"/>
  <rect x="234" y="5" width="176" height="22" rx="7" fill="#3C5175"/>
  <path d="M248 14.5V13C248 11.35 249.35 10 251 10C252.65 10 254 11.35 254 13V14.5" stroke="#F8FAFC" stroke-width="1.5" stroke-linecap="round"/>
  <rect x="245" y="14.5" width="12" height="8" rx="1.5" stroke="#F8FAFC" stroke-width="1.5"/>
  <text x="322" y="20.5" text-anchor="middle" fill="#FFFFFF" font-size="12" font-family="Inter, Arial, sans-serif" font-weight="700" letter-spacing="0.4">dhinesh71.dev</text>
  <path d="M566 8V18" stroke="#B7B7B7" stroke-width="1.6" stroke-linecap="round"/>
  <path d="M562 12L566 8L570 12" stroke="#B7B7B7" stroke-width="1.6" stroke-linecap="round" stroke-linejoin="round"/>
  <rect x="560" y="12" width="12" height="10" rx="2" stroke="#B7B7B7" stroke-width="1.4"/>
  <path d="M593 11V21M588 16H598" stroke="#B7B7B7" stroke-width="1.8" stroke-linecap="round"/>
  <rect x="616" y="9" width="10" height="10" rx="2" stroke="#B7B7B7" stroke-width="1.5"/>
  <rect x="620" y="13" width="10" height="10" rx="2" stroke="#B7B7B7" stroke-width="1.5"/>
</svg>
