<svg width="1024" height="672" viewBox="0 0 1024 672" fill="none" xmlns="http://www.w3.org/2000/svg">
  <rect width="1024" height="672" fill="#0A1020"/>
  <rect x="58" y="54" width="908" height="564" rx="38" fill="#10172A" stroke="#273A68" stroke-width="2"/>
  <rect x="98" y="94" width="828" height="96" rx="28" fill="#151F38"/>
  <text x="132" y="154" fill="#F8FAFC" font-family="Inter, Arial, sans-serif" font-size="36" font-weight="900">AssesAI</text>
  <text x="304" y="154" fill="#A5B4FC" font-family="Inter, Arial, sans-serif" font-size="24" font-weight="800">AI Quiz Generation Platform</text>
  <rect x="742" y="116" width="144" height="42" rx="21" fill="#7C3AED"/>
  <text x="779" y="143" fill="#FFFFFF" font-family="Inter, Arial, sans-serif" font-size="16" font-weight="900">LLM</text>
  <rect x="98" y="230" width="390" height="330" rx="30" fill="#151F38" stroke="#2E4372"/>
  <text x="132" y="282" fill="#E0E7FF" font-family="Inter, Arial, sans-serif" font-size="28" font-weight="850">Prompt Input</text>
  <rect x="132" y="324" width="300" height="18" rx="9" fill="#334155"/>
  <rect x="132" y="364" width="246" height="18" rx="9" fill="#334155"/>
  <rect x="132" y="404" width="316" height="18" rx="9" fill="#334155"/>
  <rect x="132" y="470" width="178" height="54" rx="22" fill="#22D3EE"/>
  <text x="168" y="505" fill="#06121F" font-family="Inter, Arial, sans-serif" font-size="18" font-weight="900">Generate</text>
  <rect x="536" y="230" width="390" height="330" rx="30" fill="#17172F" stroke="#4C357D"/>
  <text x="570" y="282" fill="#F5F3FF" font-family="Inter, Arial, sans-serif" font-size="28" font-weight="850">Structured Quiz</text>
  <rect x="570" y="322" width="300" height="58" rx="16" fill="#241D42"/>
  <text x="596" y="358" fill="#FFFFFF" font-family="Inter, Arial, sans-serif" font-size="17" font-weight="800">Q1. Multiple choice</text>
  <rect x="570" y="400" width="300" height="58" rx="16" fill="#241D42"/>
  <text x="596" y="436" fill="#FFFFFF" font-family="Inter, Arial, sans-serif" font-size="17" font-weight="800">Q2. Short answer</text>
  <rect x="570" y="478" width="300" height="58" rx="16" fill="#241D42"/>
  <text x="596" y="514" fill="#FFFFFF" font-family="Inter, Arial, sans-serif" font-size="17" font-weight="800">Q3. Auto-scored</text>
  <path d="M498 394C520 394 520 394 536 394" stroke="#22D3EE" stroke-width="8" stroke-linecap="round"/>
  <path d="M520 374L544 394L520 414" stroke="#22D3EE" stroke-width="8" stroke-linecap="round" stroke-linejoin="round"/>
  <defs>
    <radialGradient id="aiGlow" cx="0" cy="0" r="1" gradientUnits="userSpaceOnUse" gradientTransform="translate(815 126) rotate(139) scale(590 529)">
      <stop stop-color="#7C3AED" stop-opacity="0.42"/>
      <stop offset="0.48" stop-color="#22D3EE" stop-opacity="0.16"/>
      <stop offset="1" stop-color="#22D3EE" stop-opacity="0"/>
    </radialGradient>
  </defs>
  <rect width="1024" height="672" fill="url(#aiGlow)"/>
</svg>
