<svg width="1024" height="672" viewBox="0 0 1024 672" fill="none" xmlns="http://www.w3.org/2000/svg">
  <rect width="1024" height="672" fill="#07111F"/>
  <rect x="58" y="54" width="908" height="564" rx="38" fill="#0E1726" stroke="#29425F" stroke-width="2"/>
  <text x="96" y="140" fill="#F8FAFC" font-family="Inter, Arial, sans-serif" font-size="40" font-weight="900">Face Recognition</text>
  <text x="96" y="180" fill="#67E8F9" font-family="Inter, Arial, sans-serif" font-size="24" font-weight="800">Attendance System</text>
  <rect x="96" y="238" width="384" height="302" rx="32" fill="#101F33" stroke="#24506E"/>
  <circle cx="288" cy="366" r="82" fill="#152A44" stroke="#22D3EE" stroke-width="8"/>
  <circle cx="260" cy="348" r="12" fill="#E0F2FE"/>
  <circle cx="316" cy="348" r="12" fill="#E0F2FE"/>
  <path d="M250 398C270 424 306 424 326 398" stroke="#E0F2FE" stroke-width="10" stroke-linecap="round"/>
  <path d="M208 284H160V332M368 284H416V332M208 448H160V400M368 448H416V400" stroke="#22D3EE" stroke-width="10" stroke-linecap="round"/>
  <rect x="552" y="246" width="330" height="76" rx="24" fill="#11263B" stroke="#23527A"/>
  <text x="584" y="294" fill="#E0F2FE" font-family="Inter, Arial, sans-serif" font-size="23" font-weight="850">Live camera scan</text>
  <rect x="552" y="358" width="330" height="76" rx="24" fill="#11263B" stroke="#23527A"/>
  <text x="584" y="406" fill="#E0F2FE" font-family="Inter, Arial, sans-serif" font-size="23" font-weight="850">Student matched</text>
  <rect x="552" y="470" width="240" height="58" rx="23" fill="#22C55E"/>
  <text x="596" y="507" fill="#052E16" font-family="Inter, Arial, sans-serif" font-size="20" font-weight="900">Attendance Marked</text>
</svg>
