<svg width="1024" height="672" viewBox="0 0 1024 672" fill="none" xmlns="http://www.w3.org/2000/svg">
  <rect width="1024" height="672" fill="#090F1A"/>
  <rect x="58" y="54" width="908" height="564" rx="38" fill="#101827" stroke="#24364F" stroke-width="2"/>
  <text x="104" y="124" fill="#EAF2FF" font-family="Inter, Arial, sans-serif" font-size="34" font-weight="900">Generative AI with Memory</text>
  <text x="106" y="162" fill="#8EA7C3" font-family="Inter, Arial, sans-serif" font-size="18" font-weight="700">Context-aware responses across sessions</text>
  <rect x="100" y="214" width="390" height="340" rx="30" fill="#132033" stroke="#2A4261"/>
  <text x="136" y="268" fill="#FFFFFF" font-family="Inter, Arial, sans-serif" font-size="27" font-weight="850">Conversation</text>
  <rect x="136" y="314" width="278" height="48" rx="20" fill="#1E293B"/>
  <text x="162" y="344" fill="#CBD5E1" font-family="Inter, Arial, sans-serif" font-size="16" font-weight="750">User preference saved</text>
  <rect x="202" y="386" width="230" height="48" rx="20" fill="#0891B2"/>
  <text x="228" y="416" fill="#E0F2FE" font-family="Inter, Arial, sans-serif" font-size="16" font-weight="850">AI remembers context</text>
  <rect x="136" y="458" width="306" height="48" rx="20" fill="#1E293B"/>
  <text x="162" y="488" fill="#CBD5E1" font-family="Inter, Arial, sans-serif" font-size="16" font-weight="750">Personalized answer returned</text>
  <rect x="552" y="214" width="372" height="340" rx="30" fill="#15142A" stroke="#3E3A78"/>
  <text x="588" y="268" fill="#FFFFFF" font-family="Inter, Arial, sans-serif" font-size="27" font-weight="850">Memory Store</text>
  <circle cx="738" cy="392" r="84" fill="#1E1B4B" stroke="#6366F1" stroke-width="4"/>
  <circle cx="738" cy="392" r="44" fill="#312E81"/>
  <path d="M692 392H784M738 346V438" stroke="#A5B4FC" stroke-width="10" stroke-linecap="round"/>
  <rect x="608" y="474" width="260" height="18" rx="9" fill="#3D3A72"/>
  <rect x="650" y="506" width="176" height="18" rx="9" fill="#3D3A72"/>
  <path d="M496 382C520 382 527 382 552 382" stroke="#22D3EE" stroke-width="8" stroke-linecap="round"/>
  <path d="M528 362L556 382L528 402" stroke="#22D3EE" stroke-width="8" stroke-linecap="round" stroke-linejoin="round"/>
  <defs>
    <radialGradient id="memoryGlow" cx="0" cy="0" r="1" gradientUnits="userSpaceOnUse" gradientTransform="translate(800 150) rotate(137) scale(560 505)">
      <stop stop-color="#6366F1" stop-opacity="0.42"/>
      <stop offset="0.48" stop-color="#22D3EE" stop-opacity="0.2"/>
      <stop offset="1" stop-color="#22D3EE" stop-opacity="0"/>
    </radialGradient>
  </defs>
  <rect width="1024" height="672" fill="url(#memoryGlow)"/>
</svg>
