<svg width="1024" height="672" viewBox="0 0 1024 672" fill="none" xmlns="http://www.w3.org/2000/svg">
  <rect width="1024" height="672" fill="#101014"/>
  <rect x="58" y="54" width="908" height="564" rx="36" fill="#181A20" stroke="#343946" stroke-width="2"/>
  <rect x="96" y="96" width="832" height="78" rx="24" fill="#20242D"/>
  <text x="130" y="146" fill="#FFF7ED" font-family="Inter, Arial, sans-serif" font-size="32" font-weight="900">Offline Canteen POS</text>
  <rect x="746" y="112" width="146" height="36" rx="18" fill="#22C55E"/>
  <text x="779" y="136" fill="#052E16" font-family="Inter, Arial, sans-serif" font-size="15" font-weight="900">OFFLINE OK</text>
  <rect x="96" y="214" width="520" height="346" rx="30" fill="#20242D" stroke="#3A4050"/>
  <text x="132" y="264" fill="#E5E7EB" font-family="Inter, Arial, sans-serif" font-size="28" font-weight="850">Order Queue</text>
  <rect x="132" y="302" width="414" height="54" rx="16" fill="#2B303B"/>
  <text x="158" y="337" fill="#F8FAFC" font-family="Inter, Arial, sans-serif" font-size="18" font-weight="800">Masala Dosa x2</text>
  <rect x="132" y="374" width="414" height="54" rx="16" fill="#2B303B"/>
  <text x="158" y="409" fill="#F8FAFC" font-family="Inter, Arial, sans-serif" font-size="18" font-weight="800">Tea x4</text>
  <rect x="132" y="446" width="414" height="54" rx="16" fill="#2B303B"/>
  <text x="158" y="481" fill="#F8FAFC" font-family="Inter, Arial, sans-serif" font-size="18" font-weight="800">Meals x1</text>
  <rect x="652" y="214" width="276" height="346" rx="30" fill="#211A16" stroke="#4A3324"/>
  <text x="684" y="264" fill="#FFF7ED" font-family="Inter, Arial, sans-serif" font-size="28" font-weight="850">Sales</text>
  <text x="684" y="336" fill="#FFFFFF" font-family="Inter, Arial, sans-serif" font-size="54" font-weight="950">₹7,850</text>
  <text x="686" y="372" fill="#FDBA74" font-family="Inter, Arial, sans-serif" font-size="18" font-weight="700">Synced locally</text>
  <rect x="684" y="420" width="174" height="54" rx="20" fill="#F97316"/>
  <text x="722" y="455" fill="#1C1006" font-family="Inter, Arial, sans-serif" font-size="18" font-weight="900">New Bill</text>
  <circle cx="586" cy="146" r="8" fill="#22C55E"/>
  <text x="604" y="153" fill="#94A3B8" font-family="Inter, Arial, sans-serif" font-size="17" font-weight="700">No internet required</text>
  <defs>
    <radialGradient id="warmGlow" cx="0" cy="0" r="1" gradientUnits="userSpaceOnUse" gradientTransform="translate(860 140) rotate(137) scale(559 501)">
      <stop stop-color="#F97316" stop-opacity="0.36"/>
      <stop offset="1" stop-color="#F97316" stop-opacity="0"/>
    </radialGradient>
  </defs>
  <rect width="1024" height="672" fill="url(#warmGlow)"/>
</svg>
