<svg width="1024" height="672" viewBox="0 0 1024 672" fill="none" xmlns="http://www.w3.org/2000/svg">
  <rect width="1024" height="672" fill="#090F1A"/>
  <rect x="58" y="54" width="908" height="564" rx="38" fill="#111827" stroke="#334155" stroke-width="2"/>
  <text x="104" y="126" fill="#F8FAFC" font-family="Inter, Arial, sans-serif" font-size="34" font-weight="900">6ixminds Command Center</text>
  <text x="106" y="164" fill="#94A3B8" font-family="Inter, Arial, sans-serif" font-size="18" font-weight="700">Employees, interns, tasks, finance</text>
  <rect x="104" y="218" width="190" height="140" rx="26" fill="#162033" stroke="#2E4372"/>
  <text x="132" y="272" fill="#E0F2FE" font-family="Inter, Arial, sans-serif" font-size="21" font-weight="850">Employees</text>
  <text x="132" y="322" fill="#FFFFFF" font-family="Inter, Arial, sans-serif" font-size="42" font-weight="950">42</text>
  <rect x="326" y="218" width="190" height="140" rx="26" fill="#162033" stroke="#2E4372"/>
  <text x="354" y="272" fill="#E0F2FE" font-family="Inter, Arial, sans-serif" font-size="21" font-weight="850">Interns</text>
  <text x="354" y="322" fill="#FFFFFF" font-family="Inter, Arial, sans-serif" font-size="42" font-weight="950">18</text>
  <rect x="548" y="218" width="372" height="140" rx="26" fill="#172554" stroke="#3B82F6"/>
  <text x="580" y="272" fill="#DBEAFE" font-family="Inter, Arial, sans-serif" font-size="21" font-weight="850">Task Pipeline</text>
  <rect x="580" y="304" width="264" height="18" rx="9" fill="#60A5FA"/>
  <rect x="104" y="400" width="816" height="142" rx="30" fill="#132033" stroke="#2A4261"/>
  <text x="138" y="455" fill="#FFFFFF" font-family="Inter, Arial, sans-serif" font-size="28" font-weight="900">Financial Tracking</text>
  <rect x="138" y="488" width="670" height="18" rx="9" fill="#334155"/>
  <defs>
    <radialGradient id="commandGlow" cx="0" cy="0" r="1" gradientUnits="userSpaceOnUse" gradientTransform="translate(790 150) rotate(137) scale(570 520)">
      <stop stop-color="#3B82F6" stop-opacity="0.36"/>
      <stop offset="1" stop-color="#3B82F6" stop-opacity="0"/>
    </radialGradient>
  </defs>
  <rect width="1024" height="672" fill="url(#commandGlow)"/>
</svg>
