<svg width="1024" height="672" viewBox="0 0 1024 672" fill="none" xmlns="http://www.w3.org/2000/svg">
  <rect width="1024" height="672" fill="#07111F"/>
  <rect x="58" y="54" width="908" height="564" rx="38" fill="#0D1728" stroke="#1E3A5F" stroke-width="2"/>
  <rect x="98" y="94" width="828" height="96" rx="28" fill="#111F35"/>
  <text x="132" y="150" fill="#F8FAFC" font-family="Inter, Arial, sans-serif" font-size="34" font-weight="900">6ixQuest</text>
  <text x="334" y="150" fill="#67E8F9" font-family="Inter, Arial, sans-serif" font-size="22" font-weight="800">AI Quiz Platform</text>
  <rect x="742" y="116" width="144" height="42" rx="21" fill="#0891B2"/>
  <text x="779" y="143" fill="#ECFEFF" font-family="Inter, Arial, sans-serif" font-size="16" font-weight="900">QUIZ</text>
  <rect x="98" y="230" width="390" height="330" rx="30" fill="#101B2F" stroke="#23476E"/>
  <text x="132" y="284" fill="#E0F2FE" font-family="Inter, Arial, sans-serif" font-size="28" font-weight="850">Question Builder</text>
  <rect x="132" y="324" width="296" height="18" rx="9" fill="#334155"/>
  <rect x="132" y="364" width="232" height="18" rx="9" fill="#334155"/>
  <rect x="132" y="404" width="316" height="18" rx="9" fill="#334155"/>
  <rect x="132" y="470" width="176" height="54" rx="22" fill="#22D3EE"/>
  <text x="170" y="504" fill="#06202C" font-family="Inter, Arial, sans-serif" font-size="18" font-weight="900">Create</text>
  <path d="M502 394L560 394M560 394L536 370M560 394L536 418" stroke="#22D3EE" stroke-width="14" stroke-linecap="round" stroke-linejoin="round"/>
  <rect x="586" y="230" width="340" height="330" rx="30" fill="#111A34" stroke="#3B5BA7"/>
  <text x="620" y="284" fill="#DBEAFE" font-family="Inter, Arial, sans-serif" font-size="28" font-weight="850">Live Quiz Room</text>
  <rect x="620" y="322" width="258" height="58" rx="16" fill="#172554"/>
  <text x="646" y="358" fill="#FFFFFF" font-family="Inter, Arial, sans-serif" font-size="17" font-weight="800">Q1. Multiple choice</text>
  <rect x="620" y="400" width="258" height="58" rx="16" fill="#1E3A8A"/>
  <text x="646" y="436" fill="#FFFFFF" font-family="Inter, Arial, sans-serif" font-size="17" font-weight="800">Score: AI assisted</text>
  <rect x="620" y="484" width="126" height="18" rx="9" fill="#22D3EE"/>
  <rect x="760" y="484" width="90" height="18" rx="9" fill="#60A5FA"/>
</svg>
